<svg width="1072" height="1072" viewBox="0 0 1072 1072" fill="none" xmlns="http://www.w3.org/2000/svg">
<rect width="1072" height="1072" fill="url(#paint0_linear_4_270)"/>
<circle cx="399.355" cy="284.036" r="112.836" transform="rotate(180 399.355 284.036)" fill="white"/>
<circle cx="676.607" cy="284.036" r="112.836" transform="rotate(180 676.607 284.036)" fill="white"/>
<path d="M583.115 226.006L583.115 342.066C583.115 342.066 563.357 297.78 537.981 297.78C512.605 297.78 492.847 342.066 492.847 342.066L492.847 226.006C492.847 226.006 512.605 271.819 537.981 271.819C563.357 271.819 583.115 226.006 583.115 226.006Z" fill="white"/>
<circle cx="261.337" cy="524.896" r="112.836" transform="rotate(-120 261.337 524.896)" fill="white"/>
<circle cx="399.963" cy="765.004" r="112.836" transform="rotate(-120 399.963 765.004)" fill="white"/>
<path d="M403.472 655.022L302.961 713.051C302.961 713.051 331.435 673.797 318.747 651.821C306.059 629.845 257.827 634.876 257.827 634.876L358.337 576.847C358.337 576.847 328.541 616.864 341.229 638.841C353.917 660.817 403.472 655.022 403.472 655.022Z" fill="white"/>
<circle cx="112.836" cy="112.836" r="112.836" transform="matrix(0.5 -0.866026 -0.866026 -0.5 857.144 679.032)" fill="white"/>
<circle cx="677.216" cy="765.004" r="112.836" transform="rotate(-120 677.216 765.004)" fill="white"/>
<path d="M673.707 655.022L774.217 713.051C774.217 713.051 745.744 673.797 758.432 651.821C771.12 629.845 819.351 634.876 819.351 634.876L718.841 576.847C718.841 576.847 748.637 616.864 735.949 638.841C723.261 660.817 673.707 655.022 673.707 655.022Z" fill="white"/>
<defs>
<linearGradient id="paint0_linear_4_270" x1="536" y1="0" x2="536" y2="1072" gradientUnits="userSpaceOnUse">
<stop stop-color="#FF6900"/>
<stop offset="1" stop-color="#CA3500"/>
</linearGradient>
</defs>
</svg>
