<svg width="304" height="304" viewBox="0 0 304 304" fill="none" xmlns="http://www.w3.org/2000/svg">
<rect width="304" height="304" rx="80" fill="url(#paint0_linear_1_28)"/>
<circle cx="116.573" cy="86.676" r="29.2537" transform="rotate(180 116.573 86.676)" fill="white"/>
<circle cx="188.454" cy="86.676" r="29.2537" transform="rotate(180 188.454 86.676)" fill="white"/>
<path d="M164.215 71.6312L164.215 101.721C164.215 101.721 159.093 90.2392 152.514 90.2392C145.935 90.2392 140.812 101.721 140.812 101.721L140.812 71.6312C140.812 71.6312 145.935 83.5086 152.514 83.5086C159.093 83.5086 164.215 71.6312 164.215 71.6312Z" fill="white"/>
<circle cx="80.7911" cy="149.121" r="29.2537" transform="rotate(-120 80.7911 149.121)" fill="white"/>
<circle cx="116.731" cy="211.371" r="29.2537" transform="rotate(-120 116.731 211.371)" fill="white"/>
<path d="M117.641 182.857L91.5825 197.902C91.5825 197.902 98.9646 187.725 95.6751 182.028C92.3856 176.33 79.881 177.635 79.881 177.635L105.939 162.59C105.939 162.59 98.2144 172.965 101.504 178.662C104.793 184.36 117.641 182.857 117.641 182.857Z" fill="white"/>
<circle cx="29.2537" cy="29.2537" r="29.2537" transform="matrix(0.5 -0.866026 -0.866026 -0.5 235.26 189.082)" fill="white"/>
<circle cx="188.612" cy="211.371" r="29.2537" transform="rotate(-120 188.612 211.371)" fill="white"/>
<path d="M187.702 182.857L213.76 197.902C213.76 197.902 206.378 187.725 209.667 182.028C212.957 176.33 225.461 177.635 225.461 177.635L199.403 162.59C199.403 162.59 207.128 172.965 203.839 178.662C200.549 184.36 187.702 182.857 187.702 182.857Z" fill="white"/>
<defs>
<linearGradient id="paint0_linear_1_28" x1="152" y1="0" x2="152" y2="304" gradientUnits="userSpaceOnUse">
<stop stop-color="#FF6900"/>
<stop offset="1" stop-color="#CA3500"/>
</linearGradient>
</defs>
</svg>
